<svg xmlns="http://www.w3.org/2000/svg" viewBox="0 0 197 197"><defs><linearGradient id="a" x1="-3.99%" x2="106.19%" y1="2.22%" y2="99.84%"><stop stop-color="#43B2E5" offset="0%"/><stop stop-color="#38A3DC" offset="100%"/></linearGradient></defs><g fill="none"><circle cx="98.2" cy="98.5" r="98.2" fill="#38A3DC"/><path fill="url(#a)" d="M183 98.5c0-46.8-37.9-84.7-84.7-84.7-46.8 0-84.7 37.9-84.7 84.7 0 46.8 37.9 84.7 84.7 84.7 46.8 0 84.7-37.9 84.7-84.7z"/><g fill="#FFF"><path d="M130.9 101.4c-.2-5.3-2-9.2-4.6-12.1.2-.4.3-.7.4-1.2 1-5.6 1.5-13.7-3-18-.8-.7-1.7-1.3-2.7-1.7.9-2.6 1.3-5.3.4-8-1.6-4.7-4.5-5.1-8.4-6.7-1.9.4-2.3.4-1.3-.2.1-1.3.1-2.6-.1-4-.2-2.1-.8-4.3-2-6.1-2.1-3.3-5.8-5-9.6-4.9-3.8.2-7.3 2.1-9.5 5.2-1.3 1.9-2.1 4-2.6 6.2-.5 2.5.1 2.3-1.4 3.4-1.7 1.2-3.6 1.1-5.2 2.8-1.4 1.5-2.4 3.4-2.7 5.4-.5 2.6 0 4.9 1.1 7-.8.4-1.6.8-2.3 1.4-5.8 4.3-5.2 11.5-3.9 17.8-11.2 9.9-7.8 35.9-6.7 48.2.8 8.5 1.6 17.1 10.7 20.2 11.2 3.9 25.8 2.5 37.4 1.2 10.1-1.2 13.6-5.2 14.8-15.3 1.5-13.1 1.8-27.4 1.2-40.6zM90.6 76.2c3.2-.2 6.7.1 9.9.2 7 .1 18.4-1.8 17.6 8-9.7-3.3-23-1.8-33.1-.4-.4-.1-.9-.2-1.4-.2-.6 0-1.2.1-1.8.2-.9-6.7 2.3-7.4 8.8-7.8zm-1.9-10c-2.8-3.4 5.2-5.1 6.6-7.4.9-1.4 1.1-2.7 1.3-4.3v-1.6c-.3-3.7 1.8-4.2 6-1.5 1.3 2.7-.4 5.9 2.1 8.7.9 1 2.2 1.9 3.5 2.3 1 .2 1.9.2 2.9.3 1 1.5 1.3 2.9.7 4.2-4.1 0-8.3.4-11.4.4-3.4-.1-7.4-.5-11.4-.5l-.3-.6zm33.1 41.2c-.1 6.3-.2 12.7-.4 19-.2 8.3 1.7 19.4-8.3 22-6.6 1.7-15.4.9-22.1.5-10.1-.6-14.3-2.4-15.3-13.1-.7-7.9-4.5-38.6 5.8-42.6.5.1 1 .1 1.5 0 8.2-1.2 16.4-1.7 24.6-1.4 3.8.2 9.3 0 12.1 3.1 2.7 2.8 2.1 9.1 2.1 12.5z"/><path d="M109.1 101.7l-.3 34.7c0 5.8 9 5.8 9 0l.3-34.7c.1-5.8-8.9-5.8-9 0z"/></g></g></svg>