<svg xmlns="http://www.w3.org/2000/svg" viewBox="0 0 197 198"><defs><linearGradient id="a" x1="-7.6%" x2="91.95%" y1="-19.92%" y2="100.89%"><stop stop-color="#5C6BC0" offset="0%"/><stop stop-color="#3F51B5" offset="100%"/></linearGradient></defs><g fill="none"><circle cx="98.2" cy="99" r="98.2" fill="#3F51B5"/><path fill="url(#a)" d="M98.2 14.3c-46.8 0-84.7 37.9-84.7 84.7 0 46.8 37.9 84.7 84.7 84.7 46.8 0 84.7-37.9 84.7-84.7 0-46.8-37.9-84.7-84.7-84.7z"/><g fill="#FFF"><path d="M131.2 76.4c0-1.1-.4-2-1-2.8-.1-.2-.1-.4-.2-.6-4.5-10.3-9.2-20.6-14.1-30.7-1.2-2.5-3.6-2.9-5.6-2.1-.7-.5-1.7-.8-2.9-.6-8.3.9-16.4 2.7-24.4 5.4-1.8-.3-3.7.3-4.9 2.3-3.5 5.7-7 11.4-10.4 17.1-2 3.3-5.8 7.2-4.3 11.4.1.3.2.6.4.9-.2.5-.3 1.1-.3 1.8-.2 17-.3 34.5 1.5 51.5 1.4 12.9 14.1 15.9 24.4 21.6 1.1.6 2.1.7 3.1.6.4.1.9.2 1.4.3 4.4.3 9.5-1.7 13.7-2.7 6.2-1.5 12.4-2.9 18.6-4.4 1.8-.4 2.8-1.5 3.2-2.8 2.3-.2 4.3-1.8 4.2-4.7-.9-20.5-1.6-41-2.4-61.5zm-55.1-7.1l3.3-5.3c.6-1 1.3-2.1 1.9-3.1l5.9 15.7c-4.3-1.4-8.6-2.7-13-4.1.9-1.3 1.9-3.2 1.9-3.2zM88.9 119c-.1 6.3-1.2 13.9-1 20.9-3.2-1.5-6.4-3.2-8.9-5.2-3.2-2.7-4-3.8-4.7-8.6-.4-3.1-.4-6.4-.5-9.5-.6-11.4-.8-22.8-.7-34.2 5.4 1.7 10.9 3.4 16.3 5.2-.1 10.4-.3 20.9-.5 31.4zm0-65.6c6.1-1.9 12.3-3.3 18.6-3.9.3 0 .6-.1.9-.2 3.8 7.9 7.5 16 11 24-7 2-14 3.8-21 5.4-3.1-8.5-6.3-16.9-9.5-25.3zm34.5 82.4c-5 1.2-9.9 2.3-14.9 3.5-3.1.7-7 2.2-10.6 2.9-.1-3.8.6-8.2.6-11.5.1-5.2.2-10.4.2-15.6.1-8.8.3-17.7.4-26.5 7.5-1.7 15-3.6 22.4-5.7.3 7.4.5 14.7.8 22.1-1.1-2.3-2.6-4.5-4.5-6.2-4.6-4.3-11.6 2.6-6.9 6.9 1.8 1.6 4.5 4.5 3.1 7.2-1.2 2.3-3 .5-2.1-1.6 1-2.5-1.1-5.4-3.4-6-2.8-.8-5 1-6 3.4-4 9.7 7.4 19 16.2 13.4 2-1.3 3.3-2.8 4.2-4.6.2 6.1.4 12.2.7 18.3h-.2z"/><path d="M109.7 73.9c2.7-2.2 3.8-6 3.5-9.4-.4-3.9-2.3-6.8-5.4-9.2-2.1-1.6-5.3-.4-6.6 1.6-.2 0-.4-.1-.6-.1-2.9 0-4.6 2.3-4.9 4.9-.8 6.7 6.6 18.2 14 12.2z"/></g></g></svg>