<svg xmlns="http://www.w3.org/2000/svg" viewBox="0 0 198 198"><defs><linearGradient id="a" x1="9.06%" x2="100.87%" y1="-.86%" y2="113.19%"><stop stop-color="#8D6E63" offset="0%"/><stop stop-color="#795548" offset="100%"/></linearGradient></defs><g fill="none"><circle cx="99" cy="99" r="98.2" fill="#795548"/><path fill="url(#a)" d="M99 14.3c-46.8 0-84.7 37.9-84.7 84.7 0 46.8 37.9 84.7 84.7 84.7 46.8 0 84.7-37.9 84.7-84.7 0-46.8-37.9-84.7-84.7-84.7z"/><path fill="#FFF" d="M138.6 74.5c-12.4-12.6-30.1-12.8-44.8-5.8-.2-.1-.3-.3-.5-.4-2.4-1.7 2-11.4 1.8-14.4-.2-3.7-2.2-7.5-6-8.4-3.8-.9-7.9 1-10.6 3.5-1.5 1.3-2.7 3-3.6 4.7-.3.5-.8 1.8-1.1 2.8-2.7-.4-5.5-.8-8.1.6-2.7 1.5-3.9 4.9-4.1 7.9-.1 3.1.8 6.4 3.1 8.5 1.4 1.2 3.1 1.9 4.9 2.2 1.9.3 6.6-1.1 7.5 1.4.4 1 1 1.7 1.7 2.2-.9 1.1-1.9 2.2-2.9 3.3-.4.4-.7.9-.9 1.5-2.9.6-5.9 1.2-8.6.6-3.9-3.7-1.1-9.1-4.4-13.2-2.2-2.7-5.4-3.5-8.6-2.2-3.7 1.5-6.3 5.2-7.8 8.8-1.1 2.6-.2 4.8-3 5.1-1.7.2-4.1-1.5-6-1.4C28 82 26 92.3 30.2 98.3c2.1 3 5.5 5.1 9.2 5.4 4.8.4 10.1-4.1 14.4-1.6-.3 2.1 1.1 4.1 3.2 4.9 1.7.7 3.2 1.7 4.5 2.8-5.6 8.1-9 17.1-2.6 26 6.5 9 18.4 12.7 28.9 13.9 13.2 1.5 27.2.3 40.1-2.2 9.6-1.9 19.9-5.2 26.2-13.2 14.6-18.1-2.1-46.2-15.5-59.8zm-80.2 20c-4-2.4-8.3-2.6-13.2-1-1.7.6-3 1.4-4.9 1-2.1-.4-5-3.3-1.4-3.5 2.7-.2 5 1.9 8.1 1.1 6.7-1.6 4.9-7.7 7.8-12.4.2-.2.4-.5.6-.7 0 .2 0 .5.1.7-.2 1.1.1 2.8.4 3.9.8 2.9 2.5 5.3 4.7 7.3-.8 1.3-1.5 2.5-2.2 3.6zm17.9-27.6c-1.3-.1-3.5.7-4.5.2-1.3-.6-1.9-1.5-.7-2.1 1-.5 3.6.7 4.8.7 2.5.1 4.3-.9 5.5-3.2.5-1.1.6-2.4 1-3.5.7-2 1.9-2.7 3.2-4.2l.5-.2c.1.3.2.8.3 1.3-.2 1.7-1.1 3.4-1.5 5.1-1.3 4.6-1.3 9 1.3 12.4-.3.2-.5.4-.8.6-1-2.4-2.4-4.3-4.7-5.6-1.4-.9-2.8-1.3-4.4-1.5zm-7.1 26.9c7.3.1 14.6-2.7 22.1-2.2 7.5.5 16.2 2.1 18.9 10.2 1.8 5.5.4 13.1-4.4 16.7-9 6.7-24 1.1-30.6-6.3-3.7-4.1-6.5-8-10.6-10.9 1.5-2.6 3.1-5.1 4.6-7.5zm78.2 35.1c-9.8 12.1-32.3 12.2-46.4 12.5-8.4.2-17-.3-24.9-3.7-4.1-1.8-8.4-4.2-10.4-8.4-2.3-4.6-.5-8.8 2-12.8 1.1 1.5 2.3 2.9 3.6 4.1 4.6 4.4 10.1 6.7 16.3 7.9 11.6 2.3 24 .8 29.7-10.9 4.6-9.6 2.9-23.4-6.3-29.8-5.1-3.6-11.9-4.6-18-5.1-1.5-.1-3-.2-4.6-.2 12.5-10.6 31.4-14.6 44-1.9 10 10.3 26.2 34.4 15 48.3z"/></g></svg>