<svg xmlns="http://www.w3.org/2000/svg" viewBox="0 0 198 198"><defs><linearGradient id="a" x1="11.15%" x2="94.27%" y1="3.02%" y2="103.53%"><stop stop-color="#66BB6A" offset="0%"/><stop stop-color="#4CAF50" offset="100%"/></linearGradient></defs><g fill="none"><circle cx="99" cy="99" r="98.2" fill="#4CAF50"/><path fill="url(#a)" d="M99 14.3c-46.8 0-84.7 37.9-84.7 84.7 0 46.8 37.9 84.7 84.7 84.7 46.8 0 84.7-37.9 84.7-84.7 0-46.8-37.9-84.7-84.7-84.7z"/><path fill="#FFF" d="M127 75.4c-8.3-2.7-18.3-2.9-26.2.9-.1-1.4-.1-2.7-.2-4.1 5.8.6 11.7-.7 16.6-4.1 5.2-3.6 10.9-9.5 6.7-16-3.8-6-11.8-5.4-17.6-3-2.4 1-4.7 2.4-6.7 4-.1-1.2-.1-2.3-.2-3.5-.3-6.1-9.8-6.1-9.5 0L91.3 77c-7.3-3.3-16.5-3.4-23.7-1-13.3 4.4-19 17.4-19.5 30.6-.5 14 6.7 25.9 16 35.8 8.4 8.9 21.1 18.5 33.5 13.3 1 .7 2 1.2 3.2 1.6 1.5.4 2.9.4 4.3.2 24.4-.6 41.7-34.4 41.4-55.6-.1-13.4-6.8-22.5-19.5-26.5zm-13.3-18.6c2.4.2 1.2 1-.3 2.2-1.3 1.1-2.7 2.1-4.3 2.7-1.9.8-3.9 1.2-5.9 1.2 2.6-3.4 6.5-6.5 10.5-6.1zm21.9 56.2c-3.5 13-14.4 33.6-29.9 34.9-.4 0-.8 0-1.2.1h-1.4c-.2-.1-.4-.2-.5-.3-.1-.1-.2-.1-.2-.1s-.1-.1-.3-.2c-1.5-1.2-3.4-1.7-5.1-1.1-.7 0-1.5.2-2.3.6-9 4.8-20.5-7.3-25.7-13.3-5.2-6.1-10.2-13.3-11.1-21.4-.9-7.8.5-18 6.6-23.7 6-5.5 22.1-7.5 27.5.4 2.4 3.6 7.3 2.2 8.6-.7 6-6.3 16-6.4 24-3.7 13 4.4 14.1 16.7 11 28.5z"/></g></svg>