<svg xmlns="http://www.w3.org/2000/svg" viewBox="0 0 198 198"><defs><linearGradient id="a" x1="4.79%" x2="109.17%" y1="1.02%" y2="114.1%"><stop stop-color="#EF5350" offset="0%"/><stop stop-color="#E53935" offset="100%"/></linearGradient></defs><g fill="none"><circle cx="99" cy="99" r="98.2" fill="#E53935"/><path fill="url(#a)" d="M99 14.3c-46.8 0-84.7 37.9-84.7 84.7 0 46.8 37.9 84.7 84.7 84.7 46.8 0 84.7-37.9 84.7-84.7 0-46.8-37.9-84.7-84.7-84.7z"/><path fill="#FFF" d="M133.6 78.3c4-1.9 6.5-4.9 5.3-9.8-2.4-9.4-18.8-8.5-28.9-7.3-.1-6.7-.9-13.3-2.5-20-1.6-6.6-10.4-4.4-11 1.5-.5 4.5-.3 17.1-2.5 19.2-1.3 1.2-10.4-.2-12-.2-4 .1-8 .5-12 .9-3.5.4-5.2 3.2-5.3 5.9-.7 2.2-.1 4.7 2.5 6.1.4.2.7.4 1.1.6-14.3 12.8-23.1 31.7-20 51.3 4 25.2 27.2 33 50 33.8 23.8.8 46.3-11.7 50-36.6 2.5-16.4-1.5-35.9-14.7-45.4zm-44-.3c1-1.5 1-3.4.3-5.1h.2c3.7 0 7.3.5 10.4-1.3 1.1 1 2.4 1.7 3.8 1.5 1-.1 2.4-.3 3.9-.6-1.4 1.3-2 3.4-1.7 5.3-1.9-1-4-1.7-6.7-1.6-4.2.1-7.9 2-11.5 4 .4-.8.8-1.5 1.3-2.2zm46.7 48.6c-5.3 18.5-25 23.6-42.1 22.1-17.3-1.5-33.9-7.2-35.2-27.1-.9-13.3 4.6-26.2 13.8-35.6-.3.6-.5 1.3-.8 1.9-1.3 3.4 2 7.1 5.4 7.1 6.7-.1 10.9-4 17-5.8 8.9-2.7 13 4.1 20.6 6.7 3.4 1.2 7.3-1.9 7.1-5.4-.1-2.1-.3-4-.7-5.8 16 5.6 19.3 26.8 14.9 41.9z"/></g></svg>