<svg xmlns="http://www.w3.org/2000/svg" viewBox="0 0 198 198"><defs><linearGradient id="a" x1="8.02%" x2="103.57%" y1="8.02%" y2="103.57%"><stop stop-color="#FFA726" offset="0%"/><stop stop-color="#FF9801" offset="100%"/></linearGradient></defs><g fill="none"><circle cx="99" cy="99" r="98.2" fill="#FF9801"/><path fill="url(#a)" d="M99 14.3c-46.8 0-84.7 37.9-84.7 84.7 0 46.8 37.9 84.7 84.7 84.7 46.8 0 84.7-37.9 84.7-84.7 0-46.8-37.9-84.7-84.7-84.7z"/><g fill="#FFF"><path d="M102.2 123.6c-6.3 0-6.3 9.8 0 9.8s6.3-9.8 0-9.8zm12.8-5.4c-6.3 0-6.3 9.8 0 9.8s6.3-9.8 0-9.8zm4.9-11.8c-6.3 0-6.3 9.8 0 9.8s6.3-9.8 0-9.8z"/><path d="M151.7 68.4c-4-7.8-11.3-8.4-19.2-9.5-11-1.6-22.2-2.8-33.3-3.4-11.1-.6-22.5-.9-33.7-.1-7 .5-14.4 2.2-18.3 8.7-6.6 11.2.7 24.6 11.8 28.7.2 10.9.7 21.9 1.7 32.8.7 7.6.5 17 7.8 21.6 6.9 4.4 17.6 2.9 25.3 2.7 12.9-.2 25.8-1.2 38.7-2.7 2-.2 4.4-1.3 4.7-3.6 2.6-16.5 3.1-32.8 1.4-49.3 13 .9 18.9-14.5 13.1-25.9zm-11.6 15.5c-.5 0-1 0-1.5.1l-1.4.3c-1.1-.1-2 .2-2.8.6l-2.6.6c-1.9.4-3.8 2.7-3.6 4.7 2 15.9 2 31.7-.2 47.6-7.1.8-14.3 1.4-21.4 1.8-7.8.4-18.2 2-25.8.5-12.5-2.6-10.5-15-11.2-25.3-.5-8.4-.8-16.7-.9-25.1v-.1c.6-2.3-.3-4.8-3.4-5.3-4.9-.8-9.7-3.7-10.6-9-1.5-8.8 5.8-9.7 12.3-10.3 8.7-.8 17.8-.4 26.5-.1 8.8.3 17.7 1 26.4 2 5.3.6 12.4.4 17.4 2.5 2.9.1 5 1.7 6.2 4.7 2.2 5.1 1 8.3-3.4 9.8z"/></g></g></svg>