<svg xmlns="http://www.w3.org/2000/svg" viewBox="0 0 197 197"><defs><linearGradient id="a" x1="-6.12%" x2="90.53%" y1="-17.9%" y2="98.97%"><stop stop-color="#AB47BC" offset="0%"/><stop stop-color="#9C27B0" offset="98.37%"/></linearGradient></defs><g fill="none"><circle cx="98.8" cy="98.8" r="98.2" fill="#9C27B0"/><path fill="url(#a)" d="M98.8 14C52 14 14 52 14 98.8s37.9 84.7 84.7 84.7c46.8 0 84.7-37.9 84.7-84.7C183.4 52 145.6 14 98.8 14z"/><g fill="#FFF"><path d="M89.6 109.8c-.6-3-4.3-5-7.1-4.1-3.2 1-4.7 3.9-4.1 7.1l.6 2.9c.6 3 4.3 5 7.1 4.1 3.2-1 4.7-3.9 4.1-7.1l-.6-2.9z"/><path d="M137.3 109.7c-.5-23.1-11.2-44.8-28.4-60-4.1-3.7-9.7-.1-10 4-.5.3-1.1.7-1.5 1.3-8.2 10.2-15.8 20.7-22.7 31.9-6 9.8-13.5 20.9-12.5 32.9 1.8 20.1 23.2 31.5 41.6 29.5 21.3-2.3 34-18.8 33.5-39.6zm-31.1 27.4c-19.8 4.6-38.7-11.4-28.7-31.7 7.4-15.1 17.6-29.2 28.1-42.2 0-.1.1-.1.1-.2 17.4 20.4 36 65.9.5 74.1z"/></g></g></svg>